<svg width="24" height="24" viewBox="0 0 24 24" fill="none" xmlns="http://www.w3.org/2000/svg">
<path d="M7 20C6.45 20 5.97916 19.8042 5.5875 19.4125C5.19583 19.0209 5 18.55 5 18V10.85L3 12.375C2.76666 12.5417 2.51666 12.6125 2.25 12.5875C1.98333 12.5625 1.76666 12.4334 1.6 12.2C1.43333 11.9667 1.36666 11.7167 1.4 11.45C1.43333 11.1834 1.56666 10.9667 1.8 10.8L10.775 3.92502C10.9583 3.79169 11.1542 3.69169 11.3625 3.62502C11.5708 3.55836 11.7833 3.52502 12 3.52502C12.2167 3.52502 12.4292 3.55836 12.6375 3.62502C12.8458 3.69169 13.0417 3.79169 13.225 3.92502L16 6.05002V5.50002C16 5.08336 16.1458 4.72919 16.4375 4.43752C16.7292 4.14586 17.0833 4.00002 17.5 4.00002C17.9167 4.00002 18.2708 4.14586 18.5625 4.43752C18.8542 4.72919 19 5.08336 19 5.50002V8.35002L22.2 10.8C22.4167 10.9667 22.5458 11.1834 22.5875 11.45C22.6292 11.7167 22.5667 11.9667 22.4 12.2C22.2333 12.4334 22.0167 12.5625 21.75 12.5875C21.4833 12.6125 21.2333 12.5417 21 12.375L19 10.85V18C19 18.55 18.8042 19.0209 18.4125 19.4125C18.0208 19.8042 17.55 20 17 20H15C14.45 20 13.9792 19.8042 13.5875 19.4125C13.1958 19.0209 13 18.55 13 18V14H11V18C11 18.55 10.8042 19.0209 10.4125 19.4125C10.0208 19.8042 9.55 20 9 20H7ZM7 18H9V14C9 13.45 9.19583 12.9792 9.5875 12.5875C9.97916 12.1959 10.45 12 11 12H13C13.55 12 14.0208 12.1959 14.4125 12.5875C14.8042 12.9792 15 13.45 15 14V18H17V9.32502L12 5.52502L7 9.32502V18ZM10 10.025H14C14 9.49169 13.8 9.05419 13.4 8.71252C13 8.37086 12.5333 8.20002 12 8.20002C11.4667 8.20002 11 8.37086 10.6 8.71252C10.2 9.05419 10 9.49169 10 10.025Z" fill="#29313D"/>
</svg>
