<svg width="24" height="24" viewBox="0 0 24 24" fill="none" xmlns="http://www.w3.org/2000/svg">
<path d="M3.9997 18V7.09995L2.4497 3.74995C2.33303 3.49995 2.3247 3.24579 2.4247 2.98745C2.5247 2.72912 2.6997 2.54162 2.9497 2.42495C3.1997 2.30829 3.45387 2.29579 3.7122 2.38745C3.97053 2.47912 4.15803 2.64995 4.2747 2.89995L6.1997 7.04995H17.7997L19.7247 2.89995C19.8414 2.64995 20.0289 2.47495 20.2872 2.37495C20.5455 2.27495 20.7997 2.29162 21.0497 2.42495C21.2997 2.54162 21.4747 2.72912 21.5747 2.98745C21.6747 3.24579 21.6664 3.49995 21.5497 3.74995L19.9997 7.09995V18C19.9997 18.55 19.8039 19.0208 19.4122 19.4125C19.0205 19.8041 18.5497 20 17.9997 20H5.9997C5.4497 20 4.97887 19.8041 4.5872 19.4125C4.19553 19.0208 3.9997 18.55 3.9997 18ZM9.9997 13H13.9997C14.283 13 14.5205 12.9041 14.7122 12.7125C14.9039 12.5208 14.9997 12.2833 14.9997 12C14.9997 11.7166 14.9039 11.4791 14.7122 11.2875C14.5205 11.0958 14.283 11 13.9997 11H9.9997C9.71637 11 9.47887 11.0958 9.2872 11.2875C9.09553 11.4791 8.9997 11.7166 8.9997 12C8.9997 12.2833 9.09553 12.5208 9.2872 12.7125C9.47887 12.9041 9.71637 13 9.9997 13ZM5.9997 18H17.9997V9.04995H5.9997V18Z" fill="#29313D"/>
</svg>
