<svg width="24" height="24" viewBox="0 0 24 24" fill="none" xmlns="http://www.w3.org/2000/svg">
<path d="M11.8753 20.6571C11.861 20.6571 11.861 20.6571 11.8753 20.6571C11.7606 20.5857 11.6745 20.5143 11.5885 20.4429C11.5598 20.4143 11.5311 20.4 11.5024 20.3714C11.4307 20.3143 11.3733 20.2571 11.3016 20.2C11.2729 20.1714 11.2442 20.1429 11.2156 20.1286C11.1438 20.0571 11.0721 19.9857 10.9861 19.9143C10.9717 19.9 10.9574 19.8857 10.943 19.8714C10.857 19.7857 10.7709 19.7 10.6992 19.6C10.6705 19.5714 10.6562 19.5429 10.6275 19.5286C10.5701 19.4571 10.5128 19.3857 10.4554 19.3143C10.4267 19.2857 10.4124 19.2571 10.3837 19.2286C10.3263 19.1571 10.2689 19.0714 10.2116 19C10.1972 18.9714 10.1829 18.9571 10.1685 18.9286C10.0968 18.8286 10.0395 18.7286 9.96774 18.6143C9.96774 18.6143 9.96774 18.6 9.9534 18.6C7.18527 18.5571 4.89045 17.9286 3.70001 16.9714V18.6857C3.70001 19.7857 6.38208 21 10.2403 21C10.9144 21 11.5741 20.9571 12.2195 20.8857C12.2052 20.8857 12.2052 20.8714 12.1909 20.8714C12.0761 20.8 11.9757 20.7286 11.8753 20.6571Z" fill="#29313D"/>
<path d="M9.04981 14.2429C9.06416 14.0857 9.09284 13.9286 9.12153 13.7857C9.12153 13.7714 9.12153 13.7429 9.13587 13.7286C9.19324 13.4429 9.2793 13.1571 9.37969 12.8714C9.39404 12.8571 9.39404 12.8286 9.40838 12.8143C9.45141 12.6714 9.50878 12.5429 9.56615 12.4143C9.56615 12.4 9.58049 12.3857 9.58049 12.3714C9.63786 12.2571 9.69523 12.1286 9.7526 12.0143C9.76694 11.9857 9.78129 11.9571 9.79563 11.9429C9.80997 11.9286 9.80997 11.9 9.82432 11.8857C7.11356 11.8286 4.87611 11.2 3.70001 10.2571V11.9714C3.70001 12.9286 5.82272 14.0286 9.04981 14.2429Z" fill="#29313D"/>
<path d="M9.48009 17.6286C9.46575 17.6143 9.46575 17.5857 9.46575 17.5714C9.46575 17.5571 9.46575 17.5571 9.45141 17.5429C9.40838 17.4286 9.36535 17.3143 9.33667 17.2C9.33667 17.1857 9.32232 17.1571 9.32232 17.1429C9.27929 17.0286 9.25061 16.9 9.22192 16.7857V16.7714C9.19324 16.6429 9.16455 16.5143 9.13587 16.3857C9.13587 16.3571 9.12153 16.3286 9.12153 16.3C9.10718 16.2 9.09284 16.1 9.0785 16C9.0785 15.9571 9.06416 15.9286 9.06416 15.8857C9.04981 15.7857 9.03547 15.6714 9.03547 15.5714C9.03547 15.5571 9.03547 15.5286 9.03547 15.5143C9.03547 15.4 9.02113 15.3 9.02113 15.1857C6.91276 15.0429 4.86177 14.4857 3.71435 13.6V15.3143C3.70001 16.3429 6.03786 17.4857 9.48009 17.6286Z" fill="#29313D"/>
<path d="M10.2259 10.9286C10.2976 10.9286 10.3837 10.9286 10.4554 10.9286C10.4697 10.9 10.4984 10.8857 10.5128 10.8571C10.5558 10.8143 10.5845 10.7714 10.6275 10.7286C10.6705 10.6714 10.7279 10.6143 10.7853 10.5571C10.8283 10.5143 10.857 10.4714 10.9 10.4429C10.9574 10.3857 11.0148 10.3286 11.0578 10.2714C11.1008 10.2286 11.1295 10.2 11.1725 10.1571C11.2299 10.1 11.2873 10.0571 11.3446 10C11.3877 9.97143 11.4307 9.92857 11.4594 9.9C11.5167 9.85714 11.5885 9.8 11.6458 9.75714C11.6889 9.72857 11.7319 9.7 11.7749 9.65714C11.8323 9.61429 11.904 9.57143 11.9614 9.52857C12.0044 9.5 12.0474 9.47143 12.0905 9.44286C12.1622 9.4 12.2195 9.35714 12.2912 9.31429C12.3343 9.28571 12.3773 9.25714 12.4347 9.22857C12.5064 9.18571 12.5638 9.15714 12.6355 9.11429C12.6785 9.08571 12.7359 9.05714 12.7789 9.04286C12.8506 9.01429 12.908 8.97143 12.9797 8.94286C13.0227 8.91429 13.0801 8.9 13.1231 8.87143C13.1948 8.84286 13.2665 8.81429 13.3239 8.78571C13.3813 8.77143 13.4243 8.74286 13.4817 8.72857C13.5534 8.7 13.6251 8.68571 13.6968 8.65714C13.7542 8.64286 13.7972 8.62857 13.8546 8.6C13.9263 8.58571 13.998 8.55714 14.0697 8.54286C14.1271 8.52857 14.1701 8.51429 14.2275 8.5C14.2992 8.48571 14.3709 8.47143 14.457 8.45714C14.5144 8.44286 14.5574 8.42857 14.6148 8.42857C14.6865 8.41429 14.7725 8.4 14.8442 8.4C14.9016 8.38571 14.9446 8.38571 15.002 8.37143C15.0881 8.35714 15.1741 8.35714 15.2602 8.34286C15.3032 8.34286 15.3462 8.32857 15.3893 8.32857C15.5183 8.31429 15.6474 8.31429 15.7908 8.31429C15.9343 8.31429 16.0777 8.31429 16.2355 8.32857C16.2785 8.32857 16.3215 8.32857 16.3646 8.34286C16.465 8.35714 16.5797 8.35714 16.6801 8.37143C16.7088 8.37143 16.7375 8.37143 16.7661 8.38571V6.9C16.7518 6.91429 16.7375 6.91429 16.7231 6.92857C16.6657 6.97143 16.6084 7.01429 16.551 7.05714C16.5223 7.07143 16.508 7.08571 16.4793 7.1C16.4076 7.14286 16.3359 7.18571 16.2642 7.24286C16.2498 7.24286 16.2498 7.25714 16.2355 7.25714C16.1494 7.31429 16.0634 7.35714 15.963 7.4C15.9343 7.41429 15.9199 7.42857 15.8912 7.44286C15.8195 7.48571 15.7478 7.51429 15.6618 7.54286C15.6331 7.55714 15.6044 7.57143 15.5757 7.58571C15.4753 7.62857 15.3749 7.67143 15.2602 7.71429C15.2602 7.71429 15.2602 7.71429 15.2458 7.71429C15.1454 7.75714 15.0307 7.8 14.9159 7.82857C14.8873 7.84286 14.8586 7.84286 14.8156 7.85714C14.7295 7.88571 14.6291 7.91429 14.543 7.94286C14.5144 7.95714 14.4857 7.95714 14.457 7.97143C14.3422 8 14.2132 8.04286 14.0841 8.07143C14.0697 8.07143 14.041 8.08571 14.0267 8.08571C13.912 8.11429 13.8116 8.14286 13.6968 8.15714C13.6538 8.17143 13.6251 8.17143 13.5821 8.18571C13.4817 8.21429 13.3669 8.22857 13.2522 8.25714C13.2235 8.25714 13.1948 8.27143 13.1661 8.27143C13.0227 8.3 12.8936 8.31429 12.7502 8.34286C12.7215 8.34286 12.6928 8.35714 12.6498 8.35714C12.5351 8.37143 12.4203 8.38571 12.3056 8.4C12.2626 8.4 12.2195 8.41429 12.1765 8.41429C12.0474 8.42857 11.9183 8.44286 11.7893 8.45714C11.7749 8.45714 11.7462 8.45714 11.7319 8.45714C11.5885 8.47143 11.4307 8.48571 11.2729 8.48571C11.2299 8.48571 11.1869 8.48571 11.1438 8.48571C11.0291 8.48571 10.9 8.5 10.7853 8.5C10.7422 8.5 10.6992 8.5 10.6418 8.5C10.4841 8.5 10.3263 8.5 10.1542 8.5C9.99643 8.5 9.83866 8.5 9.68089 8.5C9.63786 8.5 9.59483 8.5 9.53746 8.5C9.42272 8.5 9.29364 8.48571 9.1789 8.48571C9.13587 8.48571 9.09284 8.48571 9.04981 8.48571C8.89204 8.47143 8.74862 8.47143 8.59085 8.45714C8.56216 8.45714 8.54782 8.45714 8.51914 8.45714C8.39005 8.44286 8.26097 8.42857 8.14623 8.41429C8.1032 8.41429 8.06017 8.4 8.01714 8.4C7.9024 8.38571 7.78766 8.37143 7.68726 8.35714C7.65858 8.35714 7.61555 8.34286 7.58686 8.34286C7.44344 8.32857 7.31436 8.3 7.17093 8.27143C7.14224 8.27143 7.11356 8.25714 7.07053 8.25714C6.97013 8.24286 6.85539 8.21429 6.75499 8.2C6.71196 8.18571 6.66894 8.18571 6.62591 8.17143C6.52551 8.14286 6.41077 8.12857 6.31037 8.1C6.28169 8.1 6.26734 8.08571 6.23866 8.08571C6.10957 8.05714 5.99483 8.01429 5.88009 7.98571C5.85141 7.97143 5.80838 7.97143 5.77969 7.95714C5.69364 7.92857 5.60758 7.9 5.52153 7.87143C5.49284 7.85714 5.44981 7.84286 5.42113 7.84286C5.32073 7.8 5.22033 7.77143 5.11993 7.72857C5.10559 7.72857 5.10559 7.72857 5.09125 7.71429C4.99085 7.67143 4.89045 7.62857 4.79005 7.58571C4.83308 7.57143 4.80439 7.55714 4.77571 7.55714C4.704 7.52857 4.63228 7.48571 4.56057 7.45714C4.53188 7.42857 4.51754 7.41429 4.48886 7.4C4.4028 7.35714 4.3024 7.3 4.23069 7.25714C4.21635 7.25714 4.202 7.24286 4.202 7.24286C4.13029 7.2 4.05858 7.15714 3.98686 7.11429C3.95818 7.1 3.94384 7.08571 3.91515 7.07143C3.85778 7.02857 3.80041 6.98571 3.74304 6.94286C3.7287 6.92857 3.71435 6.92857 3.70001 6.91429V8.62857C3.70001 9.71429 6.38208 10.9286 10.2259 10.9286Z" fill="#29313D"/>
<path d="M14.8729 13.5286C14.8729 13.6857 14.9159 13.8143 15.002 13.9C15.0594 13.9571 15.1741 14.0286 15.4179 14.1286V12.9714C15.2745 13 15.1454 13.0571 15.0594 13.1429C14.9303 13.2429 14.8729 13.3714 14.8729 13.5286Z" fill="#29313D"/>
<path d="M16.3502 15.8714V17.1C16.5223 17.0571 16.6657 17 16.7805 16.9143C16.9096 16.8 16.9813 16.6714 16.9813 16.5143C16.9813 16.3429 16.9383 16.2143 16.8379 16.1286C16.7661 16.0571 16.6227 15.9714 16.3502 15.8714Z" fill="#29313D"/>
<path d="M4.3024 6.24286C5.30639 7 7.47212 7.62857 10.2403 7.62857C13.7255 7.62857 16.2642 6.62857 16.7088 5.62857C16.7518 5.52857 16.7805 5.41429 16.7805 5.31429C16.7661 4.21429 14.0841 3 10.2259 3C6.38208 3 3.70001 4.21429 3.70001 5.31429C3.70001 5.62857 3.90081 5.94286 4.3024 6.24286Z" fill="#29313D"/>
<path d="M17.1247 9.41429L17.096 9.4C16.6657 9.3 16.2355 9.25714 15.8052 9.25714C13.9406 9.25714 12.1622 10.1571 11.0578 11.6429L11.0291 11.6857C10.5414 12.3571 10.2116 13.1143 10.0395 13.9286C9.98208 14.2 9.9534 14.4714 9.92471 14.7429V14.7714C9.92471 14.7857 9.92471 14.8 9.92471 14.8143C9.92471 14.9143 9.91037 15.0143 9.91037 15.1143C9.91037 16.0714 10.1542 17.0286 10.5988 17.8714L10.6132 17.9C11.2729 19.1143 12.3199 20.0429 13.5821 20.5571C13.6681 20.5857 13.7542 20.6286 13.8403 20.6571C14.4713 20.8857 15.1311 20.9857 15.8052 20.9857C19.061 20.9857 21.7 18.3571 21.7 15.1143C21.6857 12.3714 19.8068 10.0286 17.1247 9.41429ZM17.7988 17.8429C17.4259 18.1714 16.9383 18.3714 16.3502 18.4286V18.9286C16.3502 19.0143 16.2785 19.1 16.1781 19.1H15.5901C15.504 19.1 15.4179 19.0286 15.4179 18.9286V18.4143C14.6004 18.3 13.8689 17.9571 13.2092 17.4C13.1375 17.3429 13.1375 17.2429 13.1948 17.1714L13.8689 16.3714C13.8976 16.3429 13.9406 16.3143 13.9837 16.3143H13.998C14.041 16.3143 14.0841 16.3286 14.1128 16.3571C14.543 16.7286 14.9877 16.9714 15.4323 17.0714V15.6143C14.7725 15.4429 14.2992 15.2286 13.9693 14.9571C13.6108 14.6571 13.4243 14.2143 13.4243 13.6286C13.4243 13.0571 13.6251 12.5714 14.041 12.2143C14.3996 11.8857 14.8729 11.6857 15.4323 11.6286V11.3286C15.4323 11.2429 15.504 11.1571 15.6044 11.1571H16.1924C16.2785 11.1571 16.3646 11.2286 16.3646 11.3286V11.6429C17.01 11.7143 17.6267 11.9571 18.2004 12.3429C18.2434 12.3714 18.2578 12.4 18.2721 12.4571C18.2865 12.5 18.2721 12.5429 18.2434 12.5857L17.641 13.4286C17.6124 13.4714 17.5693 13.4857 17.5263 13.5C17.512 13.5 17.512 13.5 17.4976 13.5C17.4689 13.5 17.4259 13.4857 17.3972 13.4714C17.0673 13.2429 16.7231 13.0857 16.3502 13V14.3857C17.0243 14.5571 17.5406 14.7857 17.8705 15.0714C18.2434 15.3857 18.4299 15.8429 18.4299 16.4286C18.4299 17 18.2148 17.4714 17.7988 17.8429Z" fill="#29313D"/>
</svg>
