<svg width="24" height="24" viewBox="0 0 24 24" fill="none" xmlns="http://www.w3.org/2000/svg">
<path d="M2 20C1.71667 20 1.47917 19.9042 1.2875 19.7125C1.09583 19.5209 1 19.2834 1 19C1 18.7167 1.09583 18.4792 1.2875 18.2875C1.47917 18.0959 1.71667 18 2 18H6V16H3C2.71667 16 2.47917 15.9042 2.2875 15.7125C2.09583 15.5209 2 15.2834 2 15C2 14.7167 2.09583 14.4792 2.2875 14.2875C2.47917 14.0959 2.71667 14 3 14H6V12H4.05C3.76667 12 3.52917 11.9042 3.3375 11.7125C3.14583 11.5209 3.05 11.2834 3.05 11C3.05 10.7167 3.14583 10.4792 3.3375 10.2875C3.52917 10.0959 3.76667 10 4.05 10H6V7.05003L4.475 3.75003C4.35833 3.50003 4.34583 3.24586 4.4375 2.98753C4.52917 2.72919 4.7 2.54169 4.95 2.42503C5.2 2.30836 5.45417 2.29586 5.7125 2.38753C5.97083 2.47919 6.15833 2.65003 6.275 2.90003L8.2 7.00003H19.8L18.275 3.75003C18.1583 3.50003 18.1458 3.24586 18.2375 2.98753C18.3292 2.72919 18.5 2.54169 18.75 2.42503C19 2.30836 19.2542 2.29586 19.5125 2.38753C19.7708 2.47919 19.9583 2.65003 20.075 2.90003L21.8 6.60003C21.8667 6.73336 21.9167 6.87086 21.95 7.01253C21.9833 7.15419 22 7.30003 22 7.45003V18C22 18.55 21.8042 19.0209 21.4125 19.4125C21.0208 19.8042 20.55 20 20 20H2ZM12 13H16C16.2833 13 16.5208 12.9042 16.7125 12.7125C16.9042 12.5209 17 12.2834 17 12C17 11.7167 16.9042 11.4792 16.7125 11.2875C16.5208 11.0959 16.2833 11 16 11H12C11.7167 11 11.4792 11.0959 11.2875 11.2875C11.0958 11.4792 11 11.7167 11 12C11 12.2834 11.0958 12.5209 11.2875 12.7125C11.4792 12.9042 11.7167 13 12 13ZM8 18H20V9.00003H8V18Z" fill="#29313D"/>
</svg>
